<?xml version="1.0" encoding="utf-8"?>
<!-- Generator: Adobe Illustrator 21.0.0, SVG Export Plug-In . SVG Version: 6.00 Build 0)  -->
<svg version="1.1" id="Layer_1" xmlns="http://www.w3.org/2000/svg" xmlns:xlink="http://www.w3.org/1999/xlink" x="0px" y="0px"
	 viewBox="0 0 14400 14400" style="enable-background:new 0 0 14400 14400;" xml:space="preserve">
<style type="text/css">
	.st0{fill:#FFFFFF;}
</style>
<path class="st0" d="M7899.9,8199.7H6498.2c-165.7,0-300-134.3-300-300V6498c0-165.7,134.3-300,300-300h1401.7
	c165.7,0,300,134.3,300,300v1401.7C8199.9,8065.4,8065.6,8199.7,7899.9,8199.7z"/>
<g>
	<g>
		<path d="M6658.3,6363.9c47.8,0,92.5,19.8,134.6,59.1c41.4,48.8,62.2,94.7,62.2,137.7c-1.1,21-3.1,31.5-6.2,31.5l6.2,11.8
			c0,49.4-16.8,96.3-50.4,140.9c-5.2,0-19.6,15.5-43.3,46.5v6.3c49.3,20.9,77.4,41.9,84.1,62.9l6.4,12.6l-3.1,9.4h3.1
			c6.3,0,9.5,11.3,9.5,33.8v12.6l-3.2,18.9l3.2,3.1l-3.2,22l3.2,33.8l-6.3,12.7l3.1,9.4l-6.3,40.9c6.3,21.5,11.5,60.9,15.8,118.1
			c13.1,14.8,24.4,22,33.8,22h3.2c7.8,0,16.2-4.2,25.2-12.6h3.1v3.2c0,11-3.1,17.3-9.4,18.9h-9.4l-18.9-3.2h-3.2v3.2l31.5,6.3
			c-12.1,29.4-48.6,56.4-109.4,81l-12.6,3.1h-8.6c-24.7,0-45.7-14.6-62.9-44c-9,0-22.4-15.5-40.3-46.4l3.2-3.2v-3.2l-3.2-18.8
			l9.5,3.1h3.1v-3.1c-4.2,0-6.3-3.1-6.3-9.5l-9.5-9.4l3.1-8.7l-3.1-12.6l6.3-40.9l-6.3-6.3V7088l6.3-6.2l-3.2-21.3l3.2-9.5
			l-3.2-18.9v-9.4l3.2-12.6l-3.2-12.6v-3.2l3.2-24.5l-3.2-25.1l3.2-3.1v-3.1c-4.7,0-7.9-13.6-9.5-41c0-16.2-28-25.4-84.2-27.5h-40.9
			v106.2l-3.2,59l3.2,15.7l-3.2,3.2l3.2,15.7v24.5l-6.3,6.2l6.3,22.1l-3.2,3.1l3.2,3.1l-3.2,3.1h-3.1l6.3,31.5l-3.2,3.2v2.4
			l3.2,12.5l-3.2,9.5c15.2,31.4,32.1,47.2,50.4,47.2c10,0,21.3-6.4,33.8-18.9h3.2v3.1c-7.4,19.4-17.6,32.8-30.7,40.2
			c-15.8,31.4-36.7,47.2-63,47.2c-27.8-3.1-53.7-16.7-77.9-40.8c-18.8,23-36.4,34.6-52.6,34.6h-6.4c-32,0-69.5-27.1-112.5-81.1v-3.1
			l46.4,12.6l18.9-3.2l9.4,3.2l-3.1-3.2v-3.1c4.7,0,11-12.7,18.8-37.8c-4.2,0-6.3-3.2-6.3-9.4l3.1-3.1l-3.1-14.9v-6.3l3.1-25.2
			l-3.1-18.8l3.1-9.5l-3.1-18.8v-15.1l3.1-3.1l-3.1-3.1v-96.8l6.3-9.5l-6.3-71.6l3.1-9.4l-46.5-50.4l-3.1-3.2v-3.1
			c33.1-37.8,49.6-63.7,49.6-77.9l3.1-22l-3.1-3.2v-6.3l3.1-11.8l-6.3-18.9v-3.1l6.3-6.3l-6.3-22l3.1-15.8l-3.1-28.3v-27.6l3.1-15.8
			l-3.1-22l6.3-74.7c-13.6-14.7-27.2-22-40.9-22l-49.5,25.2v-3.2c23.6-34.6,51.6-57.4,84.1-68.4c5.2-8.4,18.9-12.6,40.9-12.6
			c14.2,2.7,30.7,13.9,49.6,33.9c47.7-31,81-46.5,100-46.5h3.1l3.2,3.2L6658.3,6363.9z M6430.8,6829c0,5.8-12.5,11.1-37.7,15.9v3.1
			h9.5c17.8-8.4,31.1-12.5,40.1-12.5v-6.4l-3.2,3.2h-3.2l-2.3-3.2H6430.8z M6402.6,6829v3.2h15.8v-3.2H6402.6z M6411.9,6716.6v6.3
			l12.6,6.3v-3.2L6411.9,6716.6z M6486.6,6816.5v6.3l15.8-3.2v-3.1H6486.6z M6502.4,6408.1v3.1h15.7v-3.1H6502.4z M6593,6460.7
			c0,6.3-2.1,9.5-6.3,9.5l-3.2-3.2l-15.7,3.2h-9.4v31.4l-3.2,11.7l3.2,3.2v3.2l-3.2,25.1l3.2,44.1l-3.2,18.1l3.2,25.2v22l-6.3,9.5
			l6.3,18.9l-3.2,21.2l3.2,12.6l-3.2,12.6c0,18.9,6.3,28.3,19,28.3l43.2,3.1c42-12.1,63-33,63-63c0-16.2,5.3-24.4,15.8-24.4v-3.2
			c-8.4,0-12.6-3.1-12.6-9.4v-62.2l6.2-6.3c-7.8-70.8-18.3-106.2-31.4-106.2c0-7.9-15.5-14.2-46.4-18.9v-3.2l-3.2,3.2h-12.6v-6.3
			H6593z M6561.4,6408.1v3.1l15.8,2.4h3.2v-2.4l-15.8-3.1H6561.4z M6561.4,6794.4v3.2h9.5l22-6.3v-2.4h-9.4L6561.4,6794.4z
			 M6564.7,6844.9v6.2h9.5v-3.2L6564.7,6844.9z M6586.7,6413.6v3.1l15.7,3.2h9.4v-6.3h-3.2l-12.6,3.1l-3.1-3.1H6586.7z
			 M6611.8,6779.5l3.1,3.2v3.2l11.8-3.2v-6.3L6611.8,6779.5z M6620.5,6791.4v3.1h15.7v-3.1H6620.5z M6633.1,6423v3.2l12.6,3.1v-6.2
			H6633.1z M6645.6,6766.9v6.3l15.7-6.3v-3.1h-6.2L6645.6,6766.9z M6674,6429.3v3.2l22.1,3.1h6.3v-3.1l-18.9-3.2H6674z M6683.4,6748
			v6.3l9.5-3.2v-3.1H6683.4z M6686.6,6803.9v3.2l15.7,3.1h5.5v-3.1l-18.2-3.2H6686.6z M6707.8,6435.6v3.2h12.6v-3.2H6707.8z
			 M6717.3,6810.2c0,4.2,3.1,6.3,9.4,6.3h3.2v-3.1L6717.3,6810.2z M6723.6,6732.3v3.1h9.4l3.1-3.1v-3.1h-3.1L6723.6,6732.3z
			 M6726.7,6441.9v3.1l22.1,3.2h15.8v-3.2l-34.6-3.1H6726.7z M6742.4,7197.4v3.2l34.6,9.4h9.5c0-3.1-13.7-7.3-40.9-12.6H6742.4z
			 M6755.1,6822.8v3.2l12.6,3.1h6.3v-3.1l-15.7-3.2H6755.1z M6770.8,6448.2v3.2l18.9,3.1h6.2v-3.1l-18.9-3.2H6770.8z M6770.8,6707.1
			v3.1h6.3l12.6-9.4h-3.2L6770.8,6707.1z M6796,7206.8l-3.1,3.1v3.1h27.5v-3.1L6796,7206.8z M6804.6,6841.7v6.2h12.7v-3.1
			L6804.6,6841.7z M6848.8,7213.1c0,4.3,3.1,6.4,9.4,6.4h3.2v-3.2L6848.8,7213.1z"/>
		<path d="M7458.6,6359.3h3.1c0,4.2,3.1,6.3,9.5,6.3l3.1,86.6c0,15.2-6.3,27.5-18.9,37l3.2-3.2h3.1l3.1,3.2h3.2v-9.5l6.3,6.3
			l-3.1,25.2l3.1,77.2v52.7c0,16.8-4.2,25.2-12.6,25.2l-24.4-3.2l-12.6,3.2l-24.4-3.2l-25.2,3.2l-3.2-28.3l3.2-37l-3.2-12.6
			l9.5-18.1c-6.3-2.1-9.5-8.4-9.5-18.9l3.2-22.1c0-18.8-23.9-38.2-71.6-58.2l-18.1-3.1c-42.5,0-69.3,8.1-80.3,24.4h-3.1
			c-4.2,82.9-8.5,129.3-12.7,139.3c4.7,0,7.9,7.4,9.4,22l-6.3,33.9l6.3,6.2l-3.1,3.2l3.1,3.2v3.2l-3.1,18.1
			c0,25.2,7.1,37.7,21.2,37.7l25.2-9.4l33.8,6.3c18.4-5.2,27.5-21.7,27.5-49.6c0-12-7.1-23.6-21.3-34.6v-5.4h3.2
			c41.4,11,62.2,29.3,62.2,55.1l3.1,12.6v3.1c0,28.3-6.4,49-18.9,62.2c0,10,4.2,14.9,12.5,14.9l8.8,41c-10.1,43-31.6,64.5-64.6,64.5
			l-15.7,3.1v-3.1c18.9-19.4,28.3-34.9,28.3-46.4c0-5.2-11.5-9.4-34.6-12.6h-9.5l-21.3,3.2l-3.1-3.2v-2.3
			c-26.7,1.6-40.1,7.6-40.1,18.1l6.3,12.6l-3.1,64.5l3.1,3.2v3.1l-6.3,25.2v9.4h6.3v18.1l-6.3,18.9l3.1,3.1v3.2l-3.1,21.2l3.1,34.6
			h-3.1l9.5,27.5l-6.3,6.3l3.1,9.5l-3.1,3.1v3.1l6.3,15l-6.3,6.2c7.8,9.5,11.8,19.7,11.8,30.8l44.1,12.5
			c36.2,0,76.3-18.6,120.4-55.8l3.2-33.8l-3.2-3.2v-3.2l3.2-37l-3.2-3.1v-3.1l6.4-18.9l-6.4-24.5l6.4-6.2l-6.4-9.4v-8.7l3.2-3.1
			v-3.2l33.8,6.3l9.4-6.3l31.5,3.2h18.1l3.2,3.1h3.1l-6.3,18.1v3.2l6.3,25.1v8.7l-6.3,25.2l6.3,18.1v9.4
			c-4.2,8.4-10.5,12.6-18.9,12.6v6.3l15.8-9.4l3.1,22v11.8c-1,22.5-35.2,62.9-102.3,121.2c-51.4,24.7-84.5,36.9-99.1,36.9l-3.1-3.1
			l-14.9,3.1h-12.6c-53.1,0-95.5-15.4-127.5-46.4c-15.3,14.7-26.5,22.1-33.8,22.1h-15.8c-29.9,0-64.8-16.5-104.6-49.5l-6.3-6.3
			l-9.4-12.6l3.1-3.1c19.4,12.6,32.7,18.9,40.1,18.9h15.7c18.4-8.4,27.5-22.1,27.5-41l-3.1-11.8l6.3-6.3l-6.3-15.8l3.1-21.2
			l-3.1-25.3l6.3-6.3l-9.5-9.4l3.2-40.1l-3.2-8.7l3.2-28.4v-12.6l3.1-3.1l-6.3-11.9l3.2-49.6V6929l-3.2-18.9l6.3-11.7
			c-4.2,0-6.3-3.2-6.3-9.5l3.2-22l-6.3-6.3h6.3v-2.3c-11.4,0-21.8-11.5-30.7-34.6l6.3-6.3l-3.1-3.2h-22.1v-3.2l46.4-58.1v-31.5
			l3.2-18.1l-3.2-9.5l6.3-37c-4.2,0-6.3-3.1-6.3-9.4l3.2-43.3l-3.2-3.1v-3.2l6.3-24.4l-6.3-12.6l3.2-22c-1.5-55.6-3.6-83.4-6.3-83.4
			l-49.5-15.7l-30.7,22h-3.1v-3.1c0-26.2,30.9-52.9,92.8-80.3h28.5c17.8,0,34.3,9.2,49.5,27.6c45.6-26.7,76.6-40.1,92.9-40.1
			l43.3,3.1l33.8-6.3c0,5.2,13.5,8.3,40.1,9.3l86.6,37C7417.5,6408.8,7435,6392.3,7458.6,6359.3z M7040.7,6796l-3.2,3.2v3.1h3.2
			l9.4-3.1v-3.2H7040.7z M7040.7,6845.6v3.1h9.4v-6.3L7040.7,6845.6z M7050.1,6427.8l-3.1,8.6v3.1h3.1l6.4-6.3v-2.2l3.2,2.2h11.7
			v-2.2l-14.9-3.2l-3.2,3.2L7050.1,6427.8z M7102.9,6767.8c-3.7,8.4-11,12.5-22,12.5v6.3l30.6-15.7v-3.1H7102.9z M7080.9,6814.1h3.1
			l12.6-5.4v-3.1h-3.2C7085,6808.7,7080.9,6811.5,7080.9,6814.1z M7130.5,6752.8v6.2l9.4-3.1v-6.3L7130.5,6752.8z M7143,6746.5
			l6.3,6.3h11.8l-5.5-6.3H7143z M7161.1,6730.7v3.2h9.5v-6.3L7161.1,6730.7z M7167.4,6386.9c0,4.1,3.1,6.2,9.4,6.2h3.2v-3.1
			L7167.4,6386.9z M7170.6,6712.7v3.1l6.3,5.6l6.3-5.6l-9.4-3.1H7170.6z M7205.2,7285.5v2.3l15-8.6v-3.2h-3.2L7205.2,7285.5z
			 M7226.5,6418.3l6.2,6.3h3.1l-6.2-6.3H7226.5z M7226.5,7273h3.1l6.2-6.3h-3.1L7226.5,7273z M7266.6,7247.7h3.1l6.3-6.2h-3.2
			L7266.6,7247.7z M7282.3,6442.7v3.2l18.9,6.3h2.4v-3.2l-18.1-6.3H7282.3z M7309.9,7210.7v3.2h3.2l18.8-6.3v-6.3L7309.9,7210.7z
			 M7316.2,6767.8v3.1l12.6-15v-3.1L7316.2,6767.8z M7338.2,7201.3h3.2l6.3-6.2h-3.2L7338.2,7201.3z M7350.8,6486l15,12.6v-6.3
			l-12.5-6.3H7350.8z M7362.6,7186.4h3.1l9.5-9.4h-3.2L7362.6,7186.4z M7387.7,6560.7h3.2l6.3-6.3h-3.1L7387.7,6560.7z
			 M7394.1,7167.4h3.1l5.5-6.2h-2.3L7394.1,7167.4z M7418.4,7145.4v6.4l9.5-3.2v-3.2H7418.4z M7440.5,7130.5l-6.3,6.3v3.1h6.3
			l6.3-9.4H7440.5z M7437.3,6567c0,4.2,9.2,9.2,27.5,15h3.2v-3.1L7437.3,6567z M7449.9,6495.4v9.4h5.5v-9.4H7449.9z"/>
		<path d="M7713.5,6371.8l67,63.8l12.6,29.1h-3.2l-32.3-26l-9.5,3.1l-3.1-3.1c-2.1,8.4-6.3,12.6-12.6,12.6l3.1,3.1v3.2l-3.1,19.7
			l9.5,25.2l-3.2,3.1v3.2l26,48l-7.1,9.5c22.1,26.2,34.9,49.8,38.6,70.8h6.3c13.1-47.2,23.9-70.8,32.3-70.8l-3.2-3.1v-3.2
			c0-11.5,4.2-18.9,12.6-22l-3.2-9.4c16.9-44.6,25.3-74.5,25.3-89.7v-3.2l-25.3,12.6v-6.3c16.9-36.2,34.9-54.3,54.3-54.3l9.5-9.4
			h6.3c21.4,0,37.4,6.4,48,18.9c11.1-10.5,20.4-15.8,28.3-15.8h9.5c26.8,0,54.6,27.8,83.4,83.4l-3.1,3.2h-3.2
			c-11-15.2-20.7-22.9-29.1-22.9c-32,16.3-62.6,68.4-92,156.7c0,8.4-4.5,12.5-13.4,12.5v3.2l4,12.6l-16.6,22.9l3.2,12.6l-37.8,96.1
			l28.3,40.9c8.4,10,12.6,17.6,12.6,22.9c-7.3,10.4-16.7,15.7-28.3,15.7v3.1h6.3v6.3c-12.7,14.7-18.9,24.4-18.9,29.1
			c25.1,60.4,37.8,94.2,37.8,101.5h-3.2c3.2,8.9,6.3,13.4,9.5,13.4l-3.1,3.2v9.4c7.4,0,14.9,10.6,22.8,31.5l-3.1,3.2v3.1l9.4,19.6
			l-3.1,3.2v3.2c1.6,7.9,8.9,18.4,22,31.5l-3.1,16.5l18.8,28.4h-9.5c17.4,14.2,27.1,31.2,29.2,51.1l6.3,18.9h3.1l3.2-3.1h3.1
			l28.3,26h4c6.9,0,14.2-3.2,22.1-9.5h6.3v3.2c-26.3,46.7-60.3,70-102.3,70h-25.2c-8.9-8.4-17.5-12.6-26-12.6
			c0,8.9-10.5,15.2-31.5,18.8h-6.2c-43,0-76.1-22.2-99.2-66.8v-9.4l22.8,18.9h15.7c6.4,0,10.5-13,12.6-38.6l-15.7-15.8l6.3-6.3
			c-7.9,0-17.6-21.3-29.1-63.7l3.1-3.2v-3.1c-6.8,0-12-7.6-15.7-22.8l3.2-9.5h-3.2l-6.3-6.2v-19l3.2-3.1v-3.1
			c-10.6-1-20-17.1-28.4-48h-3.1l-19.8,51.1c-4.1,21-9.4,31.5-15.7,31.5l3.1,3.1v3.2c-5.8,21.5-12.1,32.3-18.9,32.3l3.1,12.5
			c-14.1,34.1-22.8,51.2-26,51.2l3.1,3.1v6.2c0,4.2-3.1,6.3-9.4,6.3l3.1,3.2v3.1l-3.1,3.2v3.9l19.7,12.6h12.6l22.1-6.3v3.2
			c-12.2,22-24.7,38-37.9,48l-3.1-3.9h-4c0,8.8-17.8,16.4-53.5,22.7l-29-12.6l-12.7,12.6h-18.9c-27.3,0-56.2-18.1-86.5-54.3h3.1
			l3.2,3.2h3.1c19.4,0,39.6-16,60.7-48l-3.2-9.4c13.1-21,21.8-41.2,26-60.5c2.5,0,9.9-22.4,22-67c30.5-67.7,50.6-120.9,60.5-159.7
			c3.2-14.7,7.4-22,12.8-22c-6.4-21.5-16.9-37.5-31.6-48l-9.4-18.8c9.4-6.3,20-20.2,31.4-41.8l-18.8-70c-7.8,0-14.4-14.9-19.7-44.8
			l-6.3-6.3v-3.1c6.8,0,10.1-2.1,10.1-6.3h-3.9l-12.6,3.1v-3.1l3.2-3.1c-8.4-14.8-14.7-31.7-18.9-51.2c-5.3-1.1-11.5-19.2-18.8-54.3
			l-9.5-9.4v-3.1l3.1-16.5h-7v-3.1l3.9-3.2v-3.1h-3.9l-3.2,3.1h-3.2l-3.1-3.1l3.1-3.2v-12.5c-14.7,0-22-7.6-22-22.9
			c-8.4,0-12.6-2.1-12.6-6.3l-48.1,16.5v-10.3c27.8-34.6,46-52.5,54.4-53.5l9.5,3.2v-3.2c8.9-17.3,27-26,54.3-26l38.6,29.2
			c6.8-11.1,15.3-16.5,25.2-16.5C7670.7,6381.8,7685.8,6375.5,7713.5,6371.8z M7636.5,7143.8v3.2l16.5,3.1h3.2v-3.1l-12.6-3.2
			H7636.5z M7656.1,6633.1v3.9h9.4l3.2-3.9v-3.2h-3.2L7656.1,6633.1z M7665.5,7153.3l12.6,9.5h3.1v-3.1l-12.5-6.4H7665.5z
			 M7675,6626.9v6.2l9.6-3.2v-6.2L7675,6626.9z M7690.7,6879.4v3.1h10.3v-3.1l3.1,3.1h22v-3.1l-22-3.1L7690.7,6879.4z
			 M7716.7,6607.9v3.2h9.4l3.2-3.2v-3.1h-3.2L7716.7,6607.9z M7729.3,6770.8v3.1c1.1,4.2,6.3,8.4,15.8,12.6v-3.1L7729.3,6770.8z
			 M7786.8,6862.9h-9.5l-15.7-3.1l3.1,3.1v6.2l-35.4,7.1v3.1h6.3c21.5-3.1,35.4-7.6,41.7-13.4h6.4v7.1h22.1v-4h-9.5v-6.2l66.9-18.9
			v-3.1C7852.6,6840.9,7827.1,6848.3,7786.8,6862.9z M7732.5,6834.6v3.2l12.6,9.4v-6.3L7732.5,6834.6z M7742,6595.4v3.1h9.4v-6.3
			L7742,6595.4z M7815.1,6866.1v3.1h16.5v-3.1H7815.1z M7837.9,6866.1v3.1h12.6l9.4-3.1v-3.1L7837.9,6866.1z M7856.8,6528.5h3.2
			l6.3-6.3h-3.2L7856.8,6528.5z M7869.4,6519l16.6,3.1l15.7-3.1v-3.9h-9.4l-9.5,3.9v-7.1h-7.1L7869.4,6519z M7872.6,6840.9v6.3h16.5
			l-6.3-6.3H7872.6z M7882.7,7274.5v3.2l19,7h3.1v-3.2l-18.8-7.1H7882.7z M7889.1,6505.6h3.2l6.2-6.3h-3.1L7889.1,6505.6z
			 M7904.8,6508.8v3.1h28.3v-3.1H7904.8z M7920.6,6483.6h3.1l6.3-6.3h-3.2L7920.6,6483.6z M7946.5,6464.7v3.2l6.4-6.3v-3.9
			L7946.5,6464.7z M7971.6,6448.2h3.2l18.9-12.6v-6.3L7971.6,6448.2z M8013.4,6416.7v3.2l15.7-6.3v-6.3
			C8018.6,6409.9,8013.4,6413.1,8013.4,6416.7z"/>
	</g>
	<g>
		<path d="M6521,7390.4c61.1,3.3,94,9.7,98.8,19.2c18.2,4.4,39.6,23,64.2,56v4.4h-4.5v4.4c9.5,0,15.3,9.8,17.6,29.6l6,13.1l-1.6,2.2
			v2.2l1.6,6.5h-1.6l-6.6-2.1c0,2.1,3.5,4.2,10.5,6.1l4.4,47.7c-2.2,23-16.5,53-42.8,90l-28,19.2v6.6c27.1,23.1,40.5,36.6,40.5,40.6
			v6.6c0,2.9-2,4.3-6,4.3v2.2h6l2.2-2.2h2.2c14.3,21.2,21.4,35.6,21.4,42.8c5.8,17.2,8.8,32.9,8.8,47.2v11c0,16.1-2.2,30.4-6.6,42.8
			l2.2,8.8c-8.1,35.5-27.5,69.9-58.2,103.2c-31.5,25.6-59.3,38.4-83.4,38.4l-19.7,6.6h-19.2l-45-8.8c-3.9,0-16.2-7.8-36.7-23.6h-1.6
			c0,5.5-9.3,10.6-28,15.4c-38.4,0-67.1-14.5-86.1-43.4v-3.8c16.5,11.3,27.2,17,32.4,17c17.1-2.9,25.7-8.1,25.7-15.4l2.2-1.6h2.2
			c0-2.9-2.2-4.4-6.6-4.4v-4.4l-2.2-17l2.2-11l-2.2-11l2.2-8.2l-2.2-11l2.2-8.2l-2.2-2.2v-2.2l4.4-19.7l-2.2-1.7v-2.1l2.2-8.8
			l-4.4-4.4l2.2-2.2l-2.2-10.3v-105.4l2.2-11c-9.6-7.7-19.5-19-30.2-34l-2.1-2.2h-2.2c0-4.4,5.1-9.5,15.4-15.4
			c0-3.6,4.9-9.3,14.8-17l14.8,4.4h2.2v-2.3l-17-4.3l4.4-32.4l-2.2-2.2v-2.2l2.2-21.4l-2.2-23.6l2.2-25.8h4.4v-4.4
			c-4.4,0-6.6-1.2-6.6-3.8v-13.2c0-3,2.2-4.4,6.6-4.4v-2.2h-4.4v-2.3l2.2-14.8l-4.4-6.5v-4.4h2.2l-2.2-25.3V7453
			c-4.4-14.7-8.8-21.9-13.1-21.9l-10.5-2.2h-17.6c-15,0-27.8,6.6-38.4,19.8v-4.4c10.9-31.4,46.1-47.1,105.3-47.1
			c10.9,0,22.5,8.6,34.6,25.7h3.8c11.7-11.4,24.7-19.9,38.9-25.7l6.6,5.9v-5.9l2.2,2.2h8.3C6505.6,7395.5,6510.7,7392.5,6521,7390.4
			z M6374.4,7418.4v4.4l8.8-2.2v-4.4h-2.2L6374.4,7418.4z M6406.8,8007.1v2.1l6.6,1.6v-3.8H6406.8z M6413.4,7676.3v4.4h8.2v-2.2
			L6413.4,7676.3z M6423.9,7682.3v2.3l8.7,2.1v-4.4H6423.9z M6423.9,7966v2.2h6.6l4.4-4.4h-4.4L6423.9,7966z M6443.6,7688.8
			c0,2.9,1.9,4.5,6,4.5h4.4v-2.3L6443.6,7688.8z M6445.8,7976.9l8.2,4.4h11l-2.1-8.8h-2.2c0,4.3-1.5,6.6-4.5,6.6h-4.4v-2.2l2.2-2.1
			v-2.2h-4.4L6445.8,7976.9z M6454,7699.9v4.4h6.6v-2.2L6454,7699.9z M6460.6,7963.8v4.4h2.2l4.3-4.4H6460.6z M6467.2,7951.1
			l-4.3,8.2h4.3l2.2-6v-2.2H6467.2z M6467.2,7972.5l4.4,4.3h1.6v-4.3H6467.2z M6469.4,7453c0,2.5,2,3.8,6,3.8h2.2v-2.1L6469.4,7453z
			 M6469.4,7706.4v1.7l2.2,2.2h3.8v-2.2L6469.4,7706.4z M6473.2,7961.6v4.4l15.4-2.2v-4.5L6473.2,7961.6z M6479.8,7987.3l-2.2,6.6
			v2.2h2.2v-4.4h2.2l11,4.4c0-2.9-2.9-4.4-8.8-4.4v-4.4H6479.8z M6479.8,7697.6v6.6c5.8,0,10.3,2.7,13.1,8.1l-2.1,2.2l19.2,4.4h6.6
			v-2.2c-17.2-2.9-25.8-8.6-25.8-17h-4.4v4.4c-3,0-4.5-2.2-4.5-6.6H6479.8z M6490.8,7461.2l4.4,4.3h2.2l-4.4-4.3H6490.8z
			 M6499,7955.5l-1.6,2.2v1.6h1.6l6.7-1.6v-2.2H6499z M6503.4,7525.9l2.3,6.1l-4.4,36.7l4.4,19.2v2.2c0,10.2-1.5,15.3-4.4,15.3
			l4.4,10.5l-4.4,17c8.8,17.2,18.9,25.8,30.2,25.8h2.2c35.8,0,53.8-17.2,53.8-51.6l2.2-10.5l-2.2-8.8v-10.4l4.3-6.6
			c-2.9,0-4.3-2.2-4.3-6.6l4.3-19.2l-4.3-4.3v-2.3l6.5-8.8h-4.4v-1.6l4.4-6.5c-4.4,0-6.5-1.5-6.5-4.4v-14.8l-2.1-10.9l8.7,2.2h2.2
			v-2.2c-7.3,0-14.7-4.2-22-12.7l-23.6-15.3c-28.5,7.3-44.2,24.5-47.2,51.6V7525.9z M6501.2,7811.2l4.4,6.6l-2.3,14.8l2.3,2.2v2.2
			l-2.3,2.2l2.3,13.2l-2.3,40.6l2.3,2.2v2.2l-2.3,2.2l2.3,10.4v2.2l-4.4,4.3l8.8,36.8l-2.3,2.2c3,0,8.6,5.7,17.1,17l23.6,4.3
			c27.4-4.3,41.2-15.9,41.2-34.5l-2.2-14.8l4.3-30.2l-4.3-19.2l2.2-11l-2.2-23.5l4.3-25.8l-4.3-4.4v-4.4c0-14.3,2.2-21.4,6.5-21.4
			v-2.2c-7.7,0-13.5-9.4-17.5-28l-28-12.7c-28.5,4.1-42.7,23.4-42.7,58.2L6501.2,7811.2z M6522.6,7719.1v4.4l8.8,2.2
			C6531.4,7723.5,6528.4,7721.2,6522.6,7719.1z M6535.8,7727.9v2.1l12.6,3.9h6.6v-2.2l-17-3.8H6535.8z M6557.2,7733.8v4.4h6.5v-2.2
			L6557.2,7733.8z M6570.3,7740.4v2.3l8.3,2.1c0-2.9-2-4.4-6.1-4.4H6570.3z M6598.4,7521.5v2.3h3.8l6.6-2.3v-2.2h-2.2L6598.4,7521.5
			z M6598.4,7751.4v2.2l10.3,3.8v-3.8l-6.6-2.2H6598.4z M6604.3,7493.5v2.2l4.4,4.5v-2.2L6604.3,7493.5z M6613.1,7498l4.4,4.3h2.2
			l-4.5-4.3H6613.1z M6615.3,7512.8v6.6l14.8-8.8l2.2,2.2h4.4v-2.2l-4.4-4.3L6615.3,7512.8z M6647.8,7759.6c0,3.4-3.7,5.5-11.1,6.6
			l-2.2-2.2l-19.3,2.2v2.2c14.4,0,21.4,1.5,21.4,4.3c7.3,0,11.1-2.8,11.1-8.8h3.8L6647.8,7759.6z M6632.3,7495.7
			c0,3-2.6,4.5-8.2,4.5v2.1l10.4,1.7v-1.7l2.2-2.1v-2.2l-2.2-2.3H6632.3z M6636.7,7508.4l6.6,2.1c0-6.2,4.2-10.4,12.6-12.6v-2.3
			h-2.2C6642.4,7500.9,6636.7,7505,6636.7,7508.4z M6649.9,7772.8v2.2l8.2,4.4h2.3c0-2.2-2.9-4.4-8.8-6.6H6649.9z M6658.1,7495.7
			h2.3l4.4-4.3h-2.2L6658.1,7495.7z M6664.8,7779.4v3.9h6.5v-1.7L6664.8,7779.4z M6666.9,7764v2.2h4.3l6.1-2.2v-2.2h-3.9
			L6666.9,7764z M6684,7787.7c0,2.9,2.1,4.4,6.5,4.4h4.3v-2.2L6684,7787.7z"/>
		<path d="M7009.5,7390.4h6.5c15.4,0,32,15.2,49.9,45.6l5,15.9h-2.8c-7.6-12.4-19-18.7-34-18.7c-7.6,0-13.7,4.6-18.1,13.7l9.3,49.9
			c-2.9,0-4.4,2.4-4.4,7.2l-2.1-2.8h-2.8v11.6h2.8l2.1-8.8h4.4c12.5,111.5,25.3,167.3,38.4,167.3l4.4,13.8c5.1,0,14.3,6.7,27.5,20.2
			v2.2c-12.5,15-21.6,28.8-27.5,41.1l41.1,240.4c4.8,12,11.6,18.1,20.4,18.1h6.5c8.8,0,17.9-6.1,27.5-18.1l2.2,2.1
			c-26.4,36.3-51.3,54.3-74.7,54.3l-27.5-15.9h-4.4c-18.3,12.1-31.1,18.1-38.4,18.1h-9.3c-21.3,0-40.8-15.2-58.7-45.6h2.2
			c16.5,7.7,29.3,11.5,38.4,11.5c9.1-1.1,13.8-7.1,13.8-18.1l-6.6-36.3l13.2-9.3h-2.2l-11,5l-2.7-2.7v-26.9
			c-7.3,0-12.7-22.7-15.9-68l-2.2-2.2v-2.2h-22.6l-24.7-2.1l-7.1,2.1l-31.8-7.1c0,3.6-6,6-18.1,7.1c-8.8,50.6-17,87.5-24.6,110.9
			l-2.1,34c2.8,9.1,8.9,13.7,18,13.7c6.9,0,14.4-3.1,22.5-9.4v5c-6.3,13.9-21.2,27.4-45,40.6h-9.4c-12.4,0-25.2-6.8-38.3-20.2h-2.2
			c-13.1,12-25.2,18-36.2,18h-9.3c-36.3-9.1-54.3-23.6-54.3-43.3c9.9,6.2,19.7,9.4,29.7,9.4c16.8,0,28.9-13.6,36.2-40.6h2.1
			l-2.1-2.7v-6.6l20.3-56.5l-2.2-2.2v-4.9l8.8-38.5l-2.2-2.1l20.3-72.4l-2.2-2.2v-2.2c2.6-3.2,4.9-13.9,7.1-31.9
			c-4.1-10.9-13.2-24.7-27.4-41.1c2.5-6.6,13.9-17.9,34-34l15.9-22.5c0-13.6,7.4-23.5,22.5-29.7v-2.1l-6.5-2.2
			c-1.1,7.6-3.5,11.5-7.2,11.5h-2.2v-4.9c19.8-72.8,29.6-117.3,29.6-133.4l4.5-18c0-21.3-8.3-31.9-24.6-31.9l-20.4,8.8v-2.2
			c17.9-30,34.6-45,49.9-45c0-3.3,3.7-4.9,11-4.9v2.7l2.1-2.7h4.9v4.9h4.5v-4.9c19,0,38.6,9.8,58.7,29.6
			C6978.5,7402.5,6995.2,7390.4,7009.5,7390.4z M6794.3,7891.3l-2.1,2.2v2.2h2.1l6.6-2.2v-2.2H6794.3z M6807.5,7889.2v2.2h2.7
			l8.8-2.2v-2.1h-4.3L6807.5,7889.2z M6823.4,7884.7v4.4l7.2-2.1v-2.3H6823.4z M6866.8,7612.6v6.6l8.8-6.6v-2.2L6866.8,7612.6z
			 M6887.1,7438.1v2.2h2.2l9.3-9.3h-2.2C6890.2,7433.5,6887.1,7435.9,6887.1,7438.1z M6887.1,7601.1v4.3l38.3-22.5v-2.2h-4.4
			L6887.1,7601.1z M6937,7580.8c-3.3,27.1-8.6,40.6-15.9,40.6l2.1,2.3l-6.5,34l2.2,7.2c-7.7,17.9-16.8,50.2-27.5,97.1l-2.1,2.7
			c4.7,0,7.1,2.2,7.1,6.6l2.2,2.1h2.2l8.8-2.1l45.5,4.4c0-3,4.6-4.4,13.7-4.4l-13.7-99.9l2.2-6.5c-12-37.7-18-65.7-18-84H6937z
			 M6905.2,7415.1v2.8h2.2l7.2-2.8v-2.2h-2.8L6905.2,7415.1z M6937,7569.2l-4.4,9.3h4.4l2.2-7.1v-2.2H6937z M6941.5,7574.2h2.1
			c6.9-3,10.8-6.1,11.5-9.3v-2.3C6946,7567.4,6941.5,7571.2,6941.5,7574.2z M6961.8,7576.4l7.1,6.6l13.2-2.2v4.4h7.1
			c0-4.4-3.9-6.7-11.6-6.7v-2.1l-2.2,2.1h-2.1L6961.8,7576.4z M6971.1,7556.1h2.2l8.8-4.9v-4.4h-2.2L6971.1,7556.1z M6987,7540.2
			v4.4c6.6-2.1,15.6-9,26.9-20.2h-2.2c-6.2,1.8-13,7.1-20.4,15.8H6987z M6993.5,7585.2l7.1,7.1l2.2-2.2v-2.8L6993.5,7585.2z
			 M7009.5,7594.5l6.5,6.6v-2.2l-4.3-4.4H7009.5z M7018.8,7943.5l-2.8,6.6h4.9v-6.6H7018.8z M7020.9,7603.3v2.1l8.8,2.8
			c0-3.3-2.2-5-6.5-5H7020.9z M7025.3,7941.3v2.2h4.4v-6.6L7025.3,7941.3z M7029.7,7963.8l7.2,7.1v-2.7l-4.9-4.4H7029.7z
			 M7036.9,7973.1v2.2l8.7,4.5v-6.6H7036.9z M7045.6,7936.9h2.2l15.9-4.9v-4.4C7051.7,7930.1,7045.6,7933.2,7045.6,7936.9z
			 M7050.1,7981.9l7.1,11.5h4.4v-7.1l-8.8-4.4H7050.1z M7052.8,7921v4.3l6.6-2.2v-4.4L7052.8,7921z M7091.2,8009.3v2.2
			c4,7.7,10,11.5,18,11.5L7091.2,8009.3z"/>
		<path d="M7256.3,7387.7l4.4,4.4l4.3-4.4l11,6.6v-2.2c29,13.5,44.3,23.1,46.1,28.6c8.1,0,13.8,5.1,17.5,15.4c4.4,0,6.5,2.9,6.5,8.8
			c9.2,0,16.5,10.9,22,32.9l-2.2,6.6l2.2-2.2h2.3c8.6,9.8,24.1,55.3,46,136.1l11,28.6l-2.2,2.2v2.1c5.9,8.1,16.1,38.8,30.7,92.2h2.2
			l4.4-52.7l-2.2-8.8v-8.8l4.4-4.4l-4.4-8.7l2.2-10.9l-2.2-17.6l2.2-2.2v-2.2l-4.4-13.1l6.6-6.6h-6.6v-35.1
			c0-17.2,1.5-28.9,4.4-35.1l-4.4-19.7l2.2-2.3l-2.2-10.9l2.2-11l-2.2-11l2.2-6.6c-3-27.8-12.5-41.7-28.5-41.7
			c-5.5,0-16.5,5.1-32.9,15.4l-2.2-2.2v-2.2c18.9-23.5,36.5-37.3,52.6-41.7c0-2.9,2.3-4.4,6.6-4.4l6.6,2.2v-2.2l6.5-6.6h8.8
			c9.9,0,19.4,5.1,28.5,15.4c10.3-8.8,19.1-13.1,26.4-13.1l8.8,2.2l13.2-2.2l35.1,17.5l-2.2,6.6l2.2-2.3h2.1
			c14.3,13.9,22.4,24.2,24.1,30.8l-2.2,2.2h-2.2c-6.2-8.8-18.6-13.2-37.2-13.2c-14.7,0-22,13.9-22,41.7h-2.1l2.1,11v24.1
			c0,2.9-2.1,4.4-6.5,4.4l6.5,11l-6.5,6.5v2.2l6.5,2.2v4.4h-2.1l2.1,15.3v35.2c0,10.2-1.4,18.3-4.4,24.1l2.3,2.2v2.2l-2.3,2.2v2.2
			l2.3,8.8l-2.3,2.2l2.3,6.6c2.9,0,4.4,5.8,4.4,17.5c10.3,3.4,15.4,8.4,15.4,15.3v4.5l6.5-4.5l11,13.2v4.4
			c-26.3,28.9-39.6,48.6-39.6,59.3l4.4,4.3l-4.4,6.6l2.3,2.2h2.1l-2.1,10.9v4.4l2.1,8.8l-2.1,2.1v2.2l2.1,2.2v2.2l-2.1,2.1v2.2
			l2.1,6.5l-2.1,2.2v2.3l2.1,2.1v2.2l-2.1,2.2v2.2l2.1,2.2v2.2l-2.1,6.6l2.1,13.1l-4.4,4.4v6.6l4.4,6.5v4.5l-2.1,8.7l2.1,8.8
			l-4.4,13.2l4.4,4.4v2.3l-2.1,2.2l2.1,2.2v4.4l-2.1,2.2l2.1,2.2v8.8l-4.4,4.4l4.4,15.4l-2.1,2.3c1.1,14.6,6.2,27.7,15.4,39.4h26.3
			l19.7-17.6l2.2,2.3c-11.3,27.4-27.4,45-48.2,52.6l-33,13.1h-6.6c-42.5,0-63.6-3.6-63.6-10.9l-13.2-4.4
			c-16.4-11-31.1-40.3-43.8-87.9l2.1-2.2h2.1v-4.3c-7.2,0-10.9-4.4-10.9-13.2l2.1-6.6l-4.3-4.3l4.3-6.6c-5.8,0-8.8-6.5-8.8-19.7
			l-2.2,2.2h-2.2l-4.3-13.2l4.3-4.5c-4.7,0-7.6-4.3-8.8-13.1h-2.2l2.2-15.4v-4.3c-7.7,0-12.7-11-15.3-32.9
			c-8.8-9.6-20.5-43.9-35.1-103.2c-5.4-7.3-9.8-19-13.1-35.1h-2.3v54.9l-4.4,6.6l4.4,15.3l-4.4,19.7l4.4,13.2v6.5l-2.2,41.7l2.2,2.2
			v2.2l-2.2,2.2v2.2l2.2,30.8v11c0,2.9-2.2,4.4-6.6,4.4l6.6,8.8l-2.2,8.8l2.2,21.9l-2.2,13.2c0,24.2,11,43.2,32.9,57.1h2.2v-4.5h6.6
			c4.7,0,9.9-2.1,15.3-6.6h2.3l4.2,4.4c-16.8,17.5-31.5,26.3-43.8,26.3c-11.3,8.8-23,13.2-35.1,13.2c-9.9,0-20.1-3.7-30.8-11
			l-21.9,8.8h-8.8c-3,0-4.4-2.2-4.4-6.5h-2.1l-6.6,4.3c-4.8-4.8-15.7-9.2-33-13.2l-28.5-24.1v-2.3h4.4l17.5,4.4h6.5l11.1-2.1
			l4.4,4.3h2.2l-2.2-2.1v-2.1l19.7-22l-4.4-15.4l4.4-11l-4.4-22l2.2-10.9l-2.2-6.6l2.2-2.1l-2.2-11v-17.5l2.2-8.8l-2.2-8.8l2.2-24
			l-2.2-28.6v-6.5l2.2-13.2l-2.2-11v-4.4l2.2-2.2c0-16.1-8.1-30-24.1-41.7l-8.8-13.2v-6.6c22-20.1,33-37.6,33-52.7l-2.2-24.1v-32.9
			l2.2-19.8l-2.2-15.3c0-12.8,6.6-21.6,19.8-26.3v-2.3h-2.1l-13.3,8.9l-4.4-4.4V7493h4.4l-2.1-8.8l2.1-6.6c-3.2,0-5.4-8.8-6.5-26.4
			l-17.5-13.1h-8.8c-8.6,0-16.5,2.9-24.2,8.8h-4.4v-2.2c26.3-26.3,41.7-39.5,46-39.5l19.8-10.9
			C7231.8,7391.4,7241.3,7389.1,7256.3,7387.7z M7236.6,7523.8h2.1l4.4-4.4h-2.2L7236.6,7523.8z M7247.5,7506.2v2.2l2.2,6.5h2.1
			v-6.5l-2.1-2.2H7247.5z M7258.5,7501.8v2.3l2.2,6.6h2.2v-2.2l-2.2-6.7H7258.5z M7258.5,7881.5h2.2l4.3-4.3h-2.1L7258.5,7881.5z
			 M7273.8,7866.1v6.6h4.4l8.8-8.7l-2.2-2.2l2.2-2.2L7273.8,7866.1z M7379.1,7822.3v4.4l6.7-2.2v-4.4L7379.1,7822.3z M7401.1,7811.2
			h2.2l6.5-2.1v-4.4L7401.1,7811.2z M7420.9,7798.1c0,2.9-2.2,4.3-6.6,4.3l-2.2,2.2v2.2h2.2l8.8-8.8H7420.9z M7440.7,7787.1
			l-2.2,2.2v2.3h2.2l6.6-2.3v-2.2H7440.7z M7475.8,7763l-22,17.6v2.1c16.2-9.9,24.1-16.5,24.1-19.7H7475.8z M7464.8,7436
			c0,3.2,3.7,5.5,11,6.5C7475.8,7439.2,7472.1,7437.1,7464.8,7436z M7495.6,7453.5v4.3l13.2,4.5h2.1v-2.2L7495.6,7453.5z
			 M7495.6,7749.8h2.1l4.4-4.4h-2.2L7495.6,7749.8z M7517.5,7466.7l4.4,4.5h4.4v-4.5H7517.5z M7521.8,7760.8l-2.1,2.2v2.1l13.1-2.1
			v-2.2H7521.8z M7521.8,7727.9v4.4l6.6-2.2v-2.2H7521.8z M7535,7714.7h2.2l4.3-4.4h-2.2L7535,7714.7z M7548.1,7688.3l-2.1,6.6v4.4
			h2.1l2.3-8.8v-2.2H7548.1z M7550.4,7708.1v2.2h8.8v-2.2H7550.4z M7565.8,7681.8l-4.4,4.3l-6.6,8.8h2.2l11-11v-2.1H7565.8z"/>
		<path d="M7879.5,7382.2c32.9,4.7,49.3,10.4,49.3,17l6.6-2.2c23.4,11,39.9,27.6,49.4,49.9l13.1,19.2c4.5,0,6.6,2.2,6.6,6.6
			c24.1,38,36.2,77.5,36.2,118.5c5.5,15.4,9.9,39.1,13.2,71.3l28,30.2c-21.6,29.6-32.4,47.5-32.4,53.7h-2.2l-2.2-2.2v28l2.2,8.8
			c-13.5,84.5-25,126.8-34.5,126.8l2.2,2.2v6.6c-4.1,21.6-22.6,51.7-56,90.6c-12.5,13.9-42.6,25.4-90.5,34.5l-6.6-2.2l-25.7,2.2
			c-10.3,0-36.1-10-77.5-30.1h-2.2c0,3.6-10.8,7.3-32.4,11c-39.6,0-69.6-19.4-90.6-58.2h2.2c19.4,15.7,35.9,23.6,49.4,23.6h2.1
			c14.3,0,21.4-16.6,21.4-49.9l2.2-14.8l-2.2-19.1l2.2-2.2v-2.2l-6.1-25.8l6.1-38.9l-2.2-13.2v-14.7l2.2-8.8l-3.8-25.8l1.6-8.8
			l-1.6-2.2v-2.2l1.6-2.2v-1.6l-1.6-11l3.8-11c-14.7-14.6-26-28.2-34.1-40.5v-2.2c22.7-22.7,34.1-39.3,34.1-49.9h-3.8v-2.2l3.8-6.1
			l-3.8-13.2l17-14.7v-2.3h-2.2l-8.7,6h-4.4l-1.6-10.4v-2.2l1.6-8.8l-1.6-6.6h1.6l-1.6-6.1l1.6-30.2l-1.6-13.2l3.8-27.9l-3.8-15.4
			l3.8-12.6l-2.2-11l2.2-2.2v-2.2c-3.3-17.2-9.7-25.7-19.3-25.7h-16.9c-6.2,0-15,5.8-26.4,17.5h-1.6v-2.1
			c21.7-34.8,41-52.1,58.2-52.1c22.3,0,40.2,5.8,53.7,17.5c9.2-8.8,18.5-13.9,28-15.3l6.6,2.2v-2.2c0-3.7,7.9-6.4,23.7-8.2
			c5.4-4.4,11.2-6.6,17-6.6h2.2l4.3,4.4l13.2-4.4l2.2,2.2h2.2L7879.5,7382.2z M7687.4,7423.3v2.2h8.8v-2.2H7687.4z M7696.3,7416.8
			v4.4h2.2l4.4-4.4H7696.3z M7730.8,7809.1v2.1c0.4,3,3.9,5.7,10.5,8.2v-3.7L7730.8,7809.1z M7737.4,7823.9v2.2l6,2.1v-4.3H7737.4z
			 M7750,7821.7l4.5,6.6l-6.6,2.2v2.2h2.1l13.2-4.5C7763.2,7825.3,7758.8,7823.2,7750,7821.7z M7750,7873.8v2.2l4.5-4.4v-2.2
			L7750,7873.8z M7754.5,7860.7v2.2h2.2l6.6-2.2v-2.2h-2.2L7754.5,7860.7z M7765.4,7856.3h3.8l4.5-4.4h-4.5L7765.4,7856.3z
			 M7767.5,7580.3v2.1h1.7c4.8-4,9.2-6.1,13.2-6.1v-4.3C7772.6,7574.6,7767.5,7577.3,7767.5,7580.3z M7769.2,7830.5v2.2h4.5v2.2
			l-2.2,2.1v2.2h6.5v-4.4l8.8,2.1h4.4v-2.1l-19.7-4.4H7769.2z M7784.6,7845.8v1.6h2.2l2.2-8.2
			C7786.1,7839.2,7784.6,7841.5,7784.6,7845.8z M7803.8,7800.3l-2.1,10.9h4.3v-4.3c4.4,0,6.6-1.5,6.6-4.5l-2.2-2.1H7803.8z
			 M7814.8,7554.5v8.8h2.2v-8.8H7814.8z M7814.8,7847.4v4.4h8.8v-2.1L7814.8,7847.4z M7819.1,8022.5l-4.4,8.2h4.4l2.2-6.1v-2.2
			H7819.1z M7825.7,7455.7l2.2,25.8l-4.4,4.4l2.2,1.6v24.2l2.2,14.8h-2.2l2.2,2.2v2.1c0,6.2-3.6,13.4-10.9,21.4h6.5v6.6l-2.2,2.3
			l2.2,2.1v49.4l-2.2,8.8l4.4,19.3l-2.2,8.7l38.5,43.4v2.1c-0.4,3-6.8,9.3-19.2,19.2c0,7.3-7.2,15.9-21.4,25.8
			c4.4,0,6.6,1.5,6.6,4.4l-2.2,21.4l2.2,19.7l-4.4,8.2l2.2,13.2l-2.2,2.1l4.4,4.4l-2.2,36.3l2.2,6.5l-2.2,11l2.2,12.6l-4.4,43.3
			l2.2,2.2v2.2l-2.2,6.6l2.2,10.5l-2.2,2.1l4.4,4.5l-2.2,10.9c0,5.6,4.2,9,12.7,10.4l2.1-2.1h2.2l8.8,2.1c30-2.9,45-8.6,45-17
			c7.6,0,15.5-20.8,23.6-62.5h2.2l-2.2-21.4l2.2-11l-2.2-10.9c1.1-18.3,3.3-29.1,6.6-32.4v-1.6c-4.4,0-6.6-1.5-6.6-4.5l2.2-58.1
			c0-13.8-4.2-24.7-12.6-32.3l2.2-2.2v-4.4c-5.8,0-8.9-3.7-8.9-11l-2.1,2.2h-2.2l-10.9-10.5v-2.1c13.9-13.9,26.1-29.9,36.8-47.8h2.2
			c-4.4-17.5-6.6-34-6.6-49.3h2.2l-2.2-2.2V7520c0-30.4-8.6-49.8-25.8-58.2c-7.3-3.7-20.1-6.4-38.4-8.2l-8.8,2.1l-2.3-2.1v-2.2
			L7825.7,7455.7z M7937.7,7483.7v2.2h4.3l6.1-2.2v-2.1h-3.9L7937.7,7483.7z M7948.1,7884.3l6.7,6.6h2.1v-4.4L7948.1,7884.3z
			 M7956.9,7470.6v4.4l8.8-4.4v-2.2h-2.2L7956.9,7470.6z M7965.7,7893v2.2l11,2.3c0-3-2.2-4.5-6.6-4.5H7965.7z M8002.5,7906.2v3.8
			h8.2v-2.2L8002.5,7906.2z"/>
	</g>
</g>
</svg>
