<svg id="Layer_1" data-name="Layer 1" xmlns="http://www.w3.org/2000/svg" viewBox="0 0 287.32 63.52"><defs><style>.cls-1{fill:#fff;}</style></defs><title>navlogo</title><path class="cls-1" d="M7080.11,7165.64a12.87,12.87,0,0,1,8.9,3.91q4.11,4.84,4.11,9.1-.11,2.08-.41,2.08l.41.78a15.23,15.23,0,0,1-3.33,9.32q-.52,0-2.86,3.07v.41q4.89,2.08,5.56,4.16l.42.84-.21.62h.21q.62,0,.63,2.24v.83l-.21,1.25.21.21-.21,1.46.21,2.24-.42.84.21.62-.42,2.7a44.1,44.1,0,0,1,1,7.81c.87,1,1.61,1.46,2.23,1.46h.21a2.55,2.55,0,0,0,1.67-.83h.21v.21c0,.73-.21,1.14-.62,1.25H7097l-1.25-.21h-.21v.21l2.09.42q-1.2,2.91-7.23,5.36l-.84.2H7089q-2.45,0-4.16-2.91-.89,0-2.66-3.07l.21-.21v-.21l-.21-1.24.63.2h.21v-.2c-.28,0-.41-.21-.41-.63l-.63-.62.2-.58-.2-.83.42-2.7-.42-.42v-1.25l.42-.41-.21-1.41.21-.63-.21-1.25v-.62l.21-.83-.21-.83v-.21l.21-1.62-.21-1.66.21-.21v-.21c-.31,0-.52-.9-.63-2.71q0-1.61-5.57-1.82h-2.71v7l-.21,3.9.21,1-.21.21.21,1v1.62l-.42.41.42,1.46-.21.21.21.21-.21.21h-.21l.42,2.08-.21.21v.16l.21.83-.21.63c1,2.08,2.12,3.12,3.33,3.12a3.45,3.45,0,0,0,2.24-1.25h.21v.2a4.88,4.88,0,0,1-2,2.66c-1,2.08-2.42,3.12-4.16,3.12a8.63,8.63,0,0,1-5.15-2.7c-1.24,1.52-2.41,2.29-3.48,2.29h-.42q-3.17,0-7.44-5.36v-.2l3.07.83,1.25-.21.62.21-.21-.21v-.2c.31,0,.73-.84,1.24-2.5-.28,0-.41-.21-.41-.62l.21-.21-.21-1v-.42l.21-1.67-.21-1.25.21-.63-.21-1.25v-1l.21-.21-.21-.2v-6.4l.41-.63-.41-4.73.21-.62-3.07-3.33-.21-.21v-.21q3.28-3.75,3.28-5.15l.21-1.46-.21-.21v-.42l.21-.78-.41-1.25v-.21l.41-.42-.41-1.46.21-1-.21-1.87v-1.82l.21-1-.21-1.46.41-4.94a3.79,3.79,0,0,0-2.71-1.46l-3.27,1.66V7172a11.09,11.09,0,0,1,5.56-4.52c.35-.55,1.25-.84,2.71-.84a6.79,6.79,0,0,1,3.28,2.24q4.73-3.07,6.61-3.07h.2l.21.21Zm-15,30.75c0,.38-.83.73-2.5,1v.2h.63a7,7,0,0,1,2.65-.83v-.42l-.21.21h-.21l-.15-.21Zm-1.87,0v.21h1v-.21Zm.62-7.44v.42l.83.42v-.21Zm4.94,6.61v.42l1-.21v-.21Zm1-27v.21h1v-.21Zm6,3.48c0,.42-.14.63-.41.63l-.21-.21-1,.21h-.62v2.08l-.21.78.21.21v.21l-.21,1.66.21,2.92-.21,1.19.21,1.67v1.45l-.42.63.42,1.25-.21,1.4.21.84-.21.83c0,1.25.42,1.87,1.26,1.87l2.85.21q4.17-1.2,4.17-4.16c0-1.07.35-1.61,1-1.61v-.21c-.55,0-.84-.21-.84-.62v-4.11l.41-.42q-.77-7-2.08-7,0-.78-3.07-1.25v-.21l-.21.21H7076V7172Zm-2.08-3.48v.21l1,.16h.21v-.16l-1-.21Zm0,25.55v.21h.63l1.46-.41v-.16h-.62Zm.21,3.34v.41h.63v-.21Zm1.46-28.52v.2l1,.21h.62v-.41h-.21l-.83.2-.21-.2Zm1.66,24.19.21.21v.21l.78-.21v-.41Zm.57.79v.2h1v-.2Zm.83-24.36v.21l.83.2v-.41Zm.83,22.74v.42l1-.42v-.21h-.41Zm1.88-22.33v.21l1.46.21h.41v-.21l-1.25-.21Zm.62,21.08v.41l.63-.21v-.2Zm.21,3.69v.21l1,.2h.36v-.2l-1.2-.21Zm1.41-24.36v.21h.83v-.21Zm.63,24.77c0,.28.21.42.62.42h.21v-.21Zm.42-5.15v.2h.62l.21-.2v-.21h-.21Zm.2-19.2v.21l1.46.21h1V7171l-2.29-.21Zm1,50v.21l2.29.62h.63c0-.21-.9-.48-2.7-.83Zm.84-24.77v.21l.83.2h.42v-.2l-1-.21Zm1-24.77v.21l1.25.2h.41v-.2l-1.25-.21Zm0,17.12v.21h.42l.83-.62h-.21Zm1.66,33-.21.21v.21h1.82v-.21Zm.57-24.15v.41h.84v-.2Zm2.92,24.56c0,.28.21.42.62.42h.21V7222Z" transform="translate(-7056.38 -7165.11)"/><path class="cls-1" d="M7133,7165.33h.21c0,.28.2.42.63.42l.2,5.72a2.91,2.91,0,0,1-1.25,2.44l.21-.21h.21l.2.21h.21v-.63l.41.42-.2,1.66.2,5.1V7184c0,1.11-.28,1.67-.83,1.67l-1.62-.21-.83.21-1.61-.21-1.66.21-.21-1.87.21-2.45-.21-.83.63-1.2c-.42-.14-.63-.56-.63-1.25l.21-1.46q0-1.87-4.74-3.85l-1.2-.21q-4.22,0-5.31,1.61h-.21q-.42,8.22-.84,9.21c.31,0,.52.49.62,1.46l-.41,2.24.41.41-.21.21.21.21v.21l-.21,1.2c0,1.66.47,2.49,1.4,2.49l1.67-.62,2.23.41q1.82-.52,1.82-3.28a3,3,0,0,0-1.41-2.29v-.36h.21q4.11,1.09,4.11,3.64l.21.83v.21a5.8,5.8,0,0,1-1.25,4.11c0,.66.28,1,.83,1l.58,2.71q-1,4.26-4.27,4.27l-1,.21v-.21q1.87-1.93,1.87-3.07c0-.35-.76-.62-2.29-.84h-.63l-1.41.21-.21-.21v-.15c-1.77.11-2.65.5-2.65,1.2l.41.83-.21,4.27.21.21v.2l-.41,1.67v.62h.41v1.2l-.41,1.25.21.21v.21l-.21,1.4.21,2.29h-.21l.63,1.82-.42.42.21.63-.21.21v.2l.42,1-.42.41a3.13,3.13,0,0,1,.78,2l2.91.83q3.59,0,8-3.69l.21-2.24-.21-.21v-.21l.21-2.45-.21-.21v-.2l.42-1.25-.42-1.62.42-.41-.42-.62v-.58l.21-.21v-.21l2.24.42.62-.42,2.08.21h1.2l.21.21h.2l-.41,1.19v.21l.41,1.66v.57l-.41,1.67.41,1.2v.62a1.34,1.34,0,0,1-1.25.83v.42l1-.62.2,1.45v.78q-.1,2.23-6.77,8-5.09,2.45-6.56,2.44l-.21-.2-1,.2h-.83a11.59,11.59,0,0,1-8.43-3.07q-1.52,1.46-2.24,1.46h-1q-3,0-6.92-3.28l-.42-.42-.62-.84.21-.21a6.49,6.49,0,0,0,2.65,1.25h1a2.81,2.81,0,0,0,1.82-2.71l-.21-.78.42-.42-.42-1,.21-1.4-.21-1.67.42-.42-.63-.62.21-2.65-.21-.57.21-1.88v-.83l.21-.2-.42-.79.21-3.28V7203l-.21-1.25.42-.78c-.28,0-.42-.21-.42-.63l.21-1.46-.42-.42h.42v-.15c-.76,0-1.44-.76-2-2.29l.41-.42-.2-.21h-1.46v-.21l3.07-3.84v-2.08l.21-1.2-.21-.63.42-2.44c-.28,0-.42-.21-.42-.62l.21-2.86-.21-.21v-.21l.42-1.61-.42-.83.21-1.46q-.15-5.52-.42-5.52l-3.27-1-2,1.46h-.21v-.21q0-2.6,6.14-5.31h1.88a4.29,4.29,0,0,1,3.27,1.82q4.53-2.65,6.14-2.65l2.86.21,2.23-.42c0,.34.89.55,2.65.62l5.73,2.45C7130.31,7168.6,7131.47,7167.51,7133,7165.33Zm-27.63,28.88-.21.21v.21h.21l.62-.21v-.21Zm0,3.28v.21h.62v-.42Zm.62-27.63-.21.57v.21h.21l.42-.42v-.15l.21.15h.77v-.15l-1-.21-.21.21Zm3.49,22.48a1.43,1.43,0,0,1-1.45.83v.42l2-1v-.2Zm-1.45,3.06h.2l.83-.36v-.21h-.21C7108.33,7195,7108.06,7195.23,7108.06,7195.4Zm3.28-4.05v.41l.62-.21v-.41Zm.83-.42.41.42h.78l-.36-.42Zm1.2-1v.21h.63v-.42Zm.42-22.74c0,.27.21.41.62.41h.21v-.21Zm.21,21.55v.2l.42.37.41-.37-.62-.2Zm2.29,37.88v.16l1-.57V7226h-.21Zm1.41-57.35.41.42h.21l-.41-.42Zm0,56.52h.21l.41-.42h-.21Zm2.65-1.67h.21l.42-.41h-.21Zm1-53.24v.21l1.25.42h.16v-.21l-1.2-.42Zm1.82,50.79v.21h.21l1.25-.42V7221Zm.42-29.29v.2l.83-1v-.21Zm1.46,28.67h.21l.41-.41h-.21Zm.83-47.3,1,.83v-.42l-.83-.42Zm.78,46.32h.21l.63-.62h-.21Zm1.66-41.37h.21l.42-.42h-.21Zm.42,40.12h.21l.36-.41h-.15Zm1.61-1.46v.42l.63-.21v-.21Zm1.46-1-.41.42v.21h.41l.41-.62Zm-.21-37.26c0,.28.61.61,1.82,1h.21v-.21Zm.83-4.74v.62h.36v-.62Z" transform="translate(-7056.38 -7165.11)"/><path class="cls-1" d="M7149.89,7166.15l4.43,4.22.84,1.93h-.21l-2.14-1.72-.63.21-.21-.21c-.14.55-.42.83-.83.83l.21.2v.21l-.21,1.3.63,1.67-.21.21v.21l1.72,3.17-.47.63a10.54,10.54,0,0,1,2.55,4.68h.41q1.3-4.68,2.14-4.68l-.21-.21v-.21a1.37,1.37,0,0,1,.83-1.45l-.21-.62a21.69,21.69,0,0,0,1.67-5.93v-.21l-1.67.83v-.42c1.11-2.39,2.31-3.59,3.59-3.59l.63-.62h.42a3.92,3.92,0,0,1,3.17,1.25,3,3,0,0,1,1.87-1h.63q2.66,0,5.52,5.52l-.2.21h-.21c-.73-1-1.37-1.51-1.93-1.51q-3.17,1.62-6.08,10.36c0,.55-.3.83-.89.83v.21l.26.83-1.1,1.51.21.83-2.5,6.35,1.87,2.7a2.85,2.85,0,0,1,.83,1.51,2.21,2.21,0,0,1-1.87,1v.21h.42v.42c-.84,1-1.25,1.61-1.25,1.93q2.49,6,2.5,6.72H7164c.21.59.42.88.63.88l-.21.21v.62c.49,0,1,.7,1.51,2.08l-.2.21v.21l.62,1.3-.21.21v.21a4.92,4.92,0,0,0,1.45,2.08l-.21,1.09,1.25,1.88H7168a4.94,4.94,0,0,1,1.93,3.38l.42,1.25h.2l.21-.21h.21l1.87,1.72h.26a2.41,2.41,0,0,0,1.46-.63h.41v.21q-2.61,4.63-6.76,4.63h-1.67a2.56,2.56,0,0,0-1.72-.83c0,.59-.69,1-2.08,1.25h-.41q-4.27,0-6.56-4.42v-.62l1.51,1.25h1c.42,0,.7-.86.83-2.55l-1-1,.41-.42q-.78,0-1.92-4.21l.2-.21v-.2c-.45,0-.79-.51-1-1.51l.21-.63h-.21l-.41-.41V7212l.21-.21v-.21q-1-.1-1.88-3.18h-.2l-1.31,3.38c-.27,1.39-.62,2.08-1,2.08l.21.21v.21c-.39,1.42-.8,2.14-1.25,2.14l.21.83c-.93,2.26-1.51,3.39-1.72,3.39l.21.21v.41c0,.28-.21.42-.62.42l.21.21v.21l-.21.21v.26l1.3.83h.83l1.46-.41v.21a10,10,0,0,1-2.5,3.17l-.2-.26h-.27q0,.87-3.54,1.5l-1.92-.83-.84.83h-1.25q-2.7,0-5.72-3.59h.21l.21.21h.21q1.93,0,4-3.18l-.21-.62a12.88,12.88,0,0,0,1.72-4q.25,0,1.45-4.43a69.71,69.71,0,0,0,4-10.56c.21-1,.49-1.46.84-1.46a5.73,5.73,0,0,0-2.09-3.18l-.62-1.24a7.82,7.82,0,0,0,2.08-2.76l-1.25-4.63c-.52,0-1-1-1.3-3l-.41-.42v-.21c.45,0,.67-.14.67-.42h-.26l-.83.2v-.2l.21-.21a11.86,11.86,0,0,1-1.25-3.38q-.52-.11-1.25-3.59l-.63-.62v-.21l.21-1.09h-.46v-.21l.26-.21v-.21h-.26l-.21.21h-.21l-.2-.21.2-.21v-.83c-1,0-1.46-.5-1.46-1.51-.56,0-.83-.14-.83-.41l-3.18,1.09v-.68q2.76-3.43,3.6-3.54l.63.21v-.21c.59-1.14,1.79-1.72,3.59-1.72l2.55,1.93a2,2,0,0,1,1.67-1.09C7147.06,7166.82,7148.06,7166.4,7149.89,7166.15Zm-5.1,51.05v.21l1.09.2h.21v-.2l-.83-.21Zm1.3-33.77v.26h.62l.21-.26v-.21h-.21Zm.62,34.4.84.63h.2v-.21l-.83-.42Zm.62-34.81v.41l.63-.21v-.41Zm1,16.7v.21h.68v-.21l.2.21h1.46v-.21l-1.46-.21Zm1.72-18v.21h.62l.21-.21v-.21h-.21Zm.83,10.77v.21c.07.28.42.56,1,.83v-.2Zm3.8,6.09h-.63l-1-.21.21.21v.41l-2.34.47v.21h.42a5.68,5.68,0,0,0,2.76-.88h.42v.47H7156V7199h-.63v-.41l4.42-1.25v-.21A21.78,21.78,0,0,0,7154.73,7198.63Zm-3.59-1.88v.21l.83.62v-.41Zm.63-15.82v.21h.62v-.42Zm4.84,17.9v.21h1.09v-.21Zm1.51,0v.21h.83l.62-.21v-.21Zm1.25-22.32h.21l.42-.42h-.21Zm.83-.63,1.1.21,1-.21v-.26h-.62l-.63.26v-.47h-.47Zm.21,21.29v.41h1.09l-.42-.41Zm.67,28.67v.21l1.25.46h.21v-.21l-1.25-.47Zm.42-50.84h.21l.41-.42h-.21Zm1,.21v.21h1.87v-.21Zm1-1.67h.21l.42-.42H7164Zm1.71-1.25v.21l.42-.42v-.26Zm1.66-1.09h.21l1.25-.83V7170Zm2.76-2.09v.21l1-.41v-.42C7170.07,7168.68,7169.72,7168.89,7169.72,7169.12Z" transform="translate(-7056.38 -7165.11)"/><path class="cls-1" d="M7194.7,7165.89q8.74.47,9.43,1.83,2.61.62,6.13,5.34v.42h-.43v.42c.91,0,1.46.94,1.68,2.83l.57,1.25-.16.21v.21l.16.62h-.16l-.63-.2q0,.31,1,.58l.42,4.55q-.32,3.3-4.08,8.59l-2.67,1.83v.63q3.87,3.3,3.87,3.88v.63c0,.28-.19.41-.57.41v.21h.57l.21-.21h.21c1.36,2,2,3.39,2,4.09a14.15,14.15,0,0,1,.84,4.51v1a12.24,12.24,0,0,1-.63,4.09l.21.84a21.74,21.74,0,0,1-5.55,9.85q-4.51,3.67-8,3.66l-1.88.63h-1.83l-4.3-.84c-.38,0-1.55-.75-3.51-2.25h-.15q0,.78-2.67,1.47a9.17,9.17,0,0,1-8.22-4.15v-.36c1.57,1.08,2.6,1.62,3.09,1.62,1.64-.28,2.46-.77,2.46-1.47l.21-.15h.21c0-.28-.21-.42-.63-.42v-.42l-.21-1.62.21-1-.21-1,.21-.78-.21-1.05.21-.78-.21-.21v-.21l.42-1.88-.21-.16v-.2l.21-.84-.42-.42.21-.21-.21-1v-10.06l.21-1a16.27,16.27,0,0,1-2.89-3.24l-.2-.21h-.21c0-.42.48-.91,1.47-1.47,0-.34.47-.89,1.41-1.62l1.42.42h.21v-.22l-1.62-.41.42-3.09-.21-.21v-.21l.21-2-.21-2.25.21-2.46h.42v-.42c-.42,0-.63-.12-.63-.36V7180c0-.28.21-.42.63-.42v-.21H7182v-.22l.21-1.41-.42-.62v-.42h.21l-.21-2.42v-2.45c-.42-1.4-.84-2.09-1.25-2.09l-1-.21h-1.68a4.55,4.55,0,0,0-3.67,1.89V7171q1.56-4.49,10.05-4.5,1.57,0,3.31,2.46h.36a11.55,11.55,0,0,1,3.71-2.46l.63.57v-.57l.21.21h.79C7193.24,7166.38,7193.72,7166.1,7194.7,7165.89Zm-14,2.67v.42l.84-.21v-.42h-.21Zm3.09,56.2v.2l.63.16v-.36Zm.63-31.58v.42h.78v-.21Zm1,.58v.22l.83.2v-.42Zm0,27.08v.21h.63l.42-.42h-.42Zm1.89-26.45c0,.28.19.43.57.43h.42v-.22Zm.21,27.49.78.42h1l-.2-.84h-.21c0,.41-.14.63-.43.63h-.42v-.21l.21-.2v-.21h-.42Zm.78-26.44v.42h.63v-.21Zm.63,25.19v.42h.21l.41-.42Zm.62-1.21-.41.79h.41l.21-.57v-.21Zm0,2,.42.41h.15v-.41Zm.21-49.59c0,.24.19.36.58.36h.21v-.2Zm0,24.19v.16l.21.21h.37v-.21Zm.36,24.35v.42l1.47-.21v-.43Zm.63,2.46-.21.63v.21h.21v-.42h.21l1,.42c0-.28-.27-.42-.84-.42v-.42Zm0-27.65v.63a1.34,1.34,0,0,1,1.25.78l-.2.21,1.83.42h.63v-.21c-1.64-.28-2.46-.82-2.46-1.62h-.42v.42c-.29,0-.43-.21-.43-.63Zm1-22.56.42.41h.21l-.42-.41Zm.78,47.18-.15.21v.15h.15l.64-.15v-.21Zm.42-41,.22.58-.42,3.51.42,1.83v.21c0,1-.15,1.46-.42,1.46l.42,1-.42,1.63c.84,1.64,1.8,2.46,2.88,2.46h.21q5.13,0,5.13-4.92l.21-1-.21-.84v-1l.41-.63c-.28,0-.41-.21-.41-.63l.41-1.83-.41-.41V7180l.62-.84h-.42V7179l.42-.62c-.42,0-.62-.14-.62-.42v-1.42l-.2-1,.83.21h.21v-.21a2.9,2.9,0,0,1-2.1-1.21l-2.25-1.46q-4.08,1-4.5,4.92Zm-.2,27.23.42.63-.22,1.41.22.21v.21l-.22.21.22,1.26-.22,3.88.22.21v.21l-.22.21.22,1v.21l-.42.41.84,3.51-.22.21c.29,0,.82.54,1.63,1.62l2.25.41c2.62-.41,3.93-1.52,3.93-3.29l-.21-1.41.41-2.88-.41-1.83.21-1.05-.21-2.25.41-2.46-.41-.42v-.42c0-1.36.21-2,.62-2v-.21c-.73,0-1.29-.89-1.67-2.67l-2.67-1.21c-2.72.39-4.08,2.24-4.08,5.56Zm2-8.8v.42l.84.21C7195.69,7197.68,7195.41,7197.47,7194.86,7197.26Zm1.26.84v.2l1.2.37h.63v-.21l-1.62-.36Zm2,.57v.42h.62v-.21Zm1.25.63v.22l.79.2c0-.28-.19-.42-.58-.42Zm2.68-20.89v.22h.36l.63-.22v-.21h-.21Zm0,21.94v.21l1,.37v-.37l-.63-.21Zm.57-24.61v.21l.42.43v-.21Zm.84.42.42.41h.21l-.43-.41Zm.21,1.41v.63l1.42-.84.21.21h.42v-.21l-.42-.41Zm3.1,23.56c0,.32-.36.53-1.06.63l-.21-.21-1.84.21v.21c1.37,0,2,.14,2,.41.7,0,1.06-.27,1.06-.84h.36Zm-1.48-25.19c0,.28-.25.43-.78.43v.2l1,.16v-.16l.21-.2v-.21l-.21-.22Zm.42,1.21.63.2c0-.6.4-1,1.2-1.2v-.22h-.21C7206.28,7176.44,7205.74,7176.83,7205.74,7177.16Zm1.26,25.23v.21l.78.42h.22c0-.21-.28-.42-.84-.63Zm.78-26.45h.22l.42-.41h-.21Zm.64,27.08v.37h.62v-.16Zm.21-1.47v.21h.42l.58-.21v-.21h-.37Zm1.63,2.26c0,.27.2.42.62.42h.41V7204Z" transform="translate(-7056.38 -7165.11)"/><path class="cls-1" d="M7241.33,7165.89h.62c1.47,0,3.05,1.45,4.77,4.35l.47,1.52h-.27a3.57,3.57,0,0,0-3.25-1.78,1.93,1.93,0,0,0-1.72,1.31l.89,4.76c-.28,0-.42.23-.42.69l-.2-.27h-.27v1.1h.27l.2-.84h.42q1.79,16,3.67,16l.42,1.32c.49,0,1.36.64,2.62,1.93v.21a19.36,19.36,0,0,0-2.62,3.92l3.93,22.95c.46,1.15,1.11,1.73,1.94,1.73h.62A3.66,3.66,0,0,0,7256,7223l.21.2c-2.52,3.46-4.89,5.18-7.13,5.18l-2.62-1.51h-.42c-1.75,1.15-3,1.73-3.67,1.73h-.89q-3,0-5.61-4.35h.21a9.57,9.57,0,0,0,3.67,1.1c.87-.11,1.32-.68,1.32-1.73l-.63-3.46,1.26-.89h-.21l-1.05.47-.26-.26V7217q-1.05,0-1.52-6.49l-.21-.21V7210h-2.15l-2.35-.2-.68.2-3-.67c0,.34-.57.57-1.73.67a83.79,83.79,0,0,1-2.35,10.59l-.2,3.24a1.67,1.67,0,0,0,1.72,1.31,3.62,3.62,0,0,0,2.15-.89v.48c-.6,1.32-2,2.61-4.3,3.87h-.89a5.31,5.31,0,0,1-3.66-1.93h-.21a5.38,5.38,0,0,1-3.46,1.72h-.89c-3.46-.87-5.18-2.25-5.18-4.14a5.25,5.25,0,0,0,2.83.89q2.4,0,3.46-3.88h.2l-.2-.26v-.63l1.93-5.39-.21-.21v-.47l.84-3.67-.21-.2,1.93-6.91-.21-.21v-.21a8.58,8.58,0,0,0,.68-3,14.17,14.17,0,0,0-2.62-3.92c.24-.63,1.32-1.71,3.25-3.24l1.52-2.14a3,3,0,0,1,2.14-2.84v-.2l-.62-.21c-.11.73-.34,1.1-.69,1.1h-.21v-.47q2.84-10.42,2.83-12.73l.43-1.72c0-2-.79-3-2.35-3l-1.95.84v-.21c1.71-2.86,3.3-4.29,4.76-4.29,0-.31.35-.47,1.05-.47v.26l.2-.26h.47v.47h.43v-.47q2.72,0,5.6,2.82Q7239.28,7165.89,7241.33,7165.89Zm-20.54,47.81-.2.21v.21h.2l.63-.21v-.21Zm1.26-.21v.21h.26l.84-.21v-.2h-.41Zm1.52-.42v.42l.68-.2v-.22Zm4.14-26v.63l.84-.63v-.21Zm1.95-16.65v.21h.21l.88-.89h-.21C7229.94,7170,7229.65,7170.24,7229.65,7170.45Zm0,15.55v.41l3.66-2.14v-.21h-.42Zm4.76-1.94c-.32,2.59-.82,3.87-1.52,3.87l.2.22-.62,3.25.21.68a60.87,60.87,0,0,0-2.62,9.26l-.2.26c.45,0,.67.21.67.63l.21.2h.21l.84-.2,4.35.42c0-.28.44-.42,1.31-.42l-1.31-9.54.21-.62a29.85,29.85,0,0,1-1.72-8Zm-3-15.82v.26h.21l.68-.26V7168H7232Zm3,14.71-.42.89h.42l.21-.68V7183Zm.42.48h.2c.66-.29,1-.58,1.1-.89v-.22C7235.27,7182.79,7234.83,7183.15,7234.83,7183.44Zm1.94.2.67.63,1.26-.21v.42h.68c0-.42-.37-.64-1.1-.64v-.2l-.21.2h-.2Zm.89-1.94h.21l.84-.47v-.42h-.21Zm1.52-1.52v.42a7.86,7.86,0,0,0,2.57-1.93h-.21a4.35,4.35,0,0,0-1.94,1.51Zm.63,4.3.68.68.21-.21v-.26Zm1.53.89.62.63v-.21l-.41-.42Zm.89,33.31-.27.63h.47v-.63Zm.2-32.47v.2l.84.27c0-.32-.21-.47-.62-.47Zm.42,32.26v.21h.42v-.63Zm.42,2.15.69.68V7221l-.47-.42Zm.69.89v.21l.83.43v-.63Zm.83-3.46h.21l1.52-.47v-.42C7245.36,7217.41,7244.78,7217.7,7244.78,7218.05Zm.43,4.3.68,1.1h.42v-.68l-.84-.42Zm.26-5.81v.41l.63-.21v-.42Zm3.67,8.43v.21a1.85,1.85,0,0,0,1.72,1.1Z" transform="translate(-7056.38 -7165.11)"/><path class="cls-1" d="M7264.88,7165.63l.42.42.41-.42,1,.63V7166c2.76,1.29,4.22,2.2,4.4,2.73.77,0,1.32.48,1.67,1.47.42,0,.62.28.62.84.88,0,1.58,1,2.1,3.14l-.21.63.21-.21h.22c.82.94,2.3,5.27,4.39,13l1.05,2.73-.21.21v.2q.84,1.15,2.93,8.8h.21l.42-5-.21-.84v-.84l.42-.42-.42-.83.21-1-.21-1.68.21-.21v-.21l-.42-1.25.63-.63h-.63v-3.35a8.89,8.89,0,0,1,.42-3.35l-.42-1.88.21-.22-.21-1,.21-1-.21-1,.21-.63c-.29-2.65-1.19-4-2.72-4a8.3,8.3,0,0,0-3.14,1.47l-.21-.21v-.21c1.81-2.24,3.49-3.56,5-4,0-.28.22-.42.63-.42l.63.21v-.21l.62-.63h.84a3.69,3.69,0,0,1,2.72,1.47,4.25,4.25,0,0,1,2.52-1.25l.84.21,1.26-.21,3.35,1.67-.21.63.21-.22h.2a8.55,8.55,0,0,1,2.3,2.94l-.21.21h-.21c-.59-.84-1.78-1.26-3.55-1.26q-2.1,0-2.1,4h-.2l.2,1.05v2.3c0,.27-.2.42-.62.42l.62,1-.62.62v.21l.62.21v.42h-.2l.2,1.46v3.36a5.07,5.07,0,0,1-.42,2.3l.22.21v.21l-.22.21v.21l.22.84-.22.21.22.63c.28,0,.42.56.42,1.67,1,.32,1.47.81,1.47,1.46v.43l.62-.43,1,1.26v.42c-2.51,2.76-3.78,4.64-3.78,5.66l.42.41-.42.63.22.21h.2l-.2,1v.42l.2.84-.2.2v.21l.2.21v.21l-.2.2v.21l.2.62-.2.21v.22l.2.2v.21l-.2.21v.21l.2.21v.21l-.2.63.2,1.25-.42.42v.63l.42.62v.43l-.2.83.2.84-.42,1.26.42.42v.22l-.2.21.2.21v.42l-.2.21.2.21v.84l-.42.42.42,1.47-.2.22a6.75,6.75,0,0,0,1.47,3.77h2.51l1.88-1.68.21.22q-1.62,3.92-4.6,5l-3.15,1.25h-.63c-4.06,0-6.07-.35-6.07-1l-1.26-.42q-2.35-1.58-4.18-8.39l.2-.21h.2v-.42c-.69,0-1-.42-1-1.26l.2-.63-.41-.41.41-.63c-.55,0-.84-.62-.84-1.88l-.21.21h-.21l-.41-1.26.41-.43c-.45,0-.73-.41-.84-1.25h-.21l.21-1.47v-.41q-1.1,0-1.46-3.14-1.26-1.37-3.35-9.85a8.65,8.65,0,0,1-1.25-3.35h-.22v5.24l-.42.63.42,1.46-.42,1.88.42,1.26v.62l-.21,4,.21.21v.21l-.21.21v.21l.21,2.94v1c0,.28-.21.42-.63.42l.63.84-.21.84.21,2.09-.21,1.26a6.16,6.16,0,0,0,3.14,5.45h.21v-.43h.63a2.39,2.39,0,0,0,1.46-.63h.22l.41.42c-1.6,1.67-3,2.51-4.18,2.51a5.4,5.4,0,0,1-3.35,1.26,5.21,5.21,0,0,1-2.94-1.05l-2.09.84h-.84c-.28,0-.42-.21-.42-.62h-.2l-.63.41a7.21,7.21,0,0,0-3.15-1.26l-2.72-2.3v-.22h.42l1.67.42h.62l1.06-.2.42.41h.21l-.21-.2v-.2l1.88-2.1-.42-1.47.42-1-.42-2.1.21-1-.21-.63.21-.2-.21-1v-1.67l.21-.84-.21-.84.21-2.29-.21-2.73v-.62l.21-1.26-.21-1v-.42l.21-.21a4.87,4.87,0,0,0-2.3-4l-.84-1.26v-.63q3.15-2.87,3.15-5l-.21-2.3v-3.14l.21-1.89-.21-1.46a2.51,2.51,0,0,1,1.89-2.51v-.22h-.2l-1.27.85-.42-.42v-2.51h.42l-.2-.84.2-.63c-.3,0-.52-.84-.62-2.52l-1.67-1.25h-.84a3.73,3.73,0,0,0-2.31.84h-.42v-.21c2.51-2.51,4-3.77,4.39-3.77l1.89-1A6.56,6.56,0,0,1,7264.88,7165.63Zm-1.88,13h.2l.42-.42h-.21Zm1-1.68v.21l.21.62h.2v-.62l-.2-.21Zm1-.43v.22l.21.63h.21v-.21l-.21-.63Zm0,36.24h.21l.41-.41h-.2Zm1.46-1.47v.63h.42l.84-.83-.21-.21.21-.21Zm10.05-4.18v.42l.64-.21v-.42Zm2.1-1.05h.21l.62-.2v-.42Zm1.89-1.25c0,.28-.21.41-.63.41l-.21.21v.21h.21l.84-.84Zm1.89-1-.21.21v.22h.21l.63-.22v-.21Zm3.35-2.3-2.1,1.68v.2c1.54-.95,2.3-1.57,2.3-1.88Zm-1-31.21c0,.31.35.52,1,.62C7285.83,7170.55,7285.49,7170.35,7284.78,7170.24Zm2.94,1.67v.41l1.26.43h.2v-.21Zm0,28.28h.2l.42-.42h-.21Zm2.09-27,.42.43h.42v-.43Zm.42,28.07-.2.21v.2l1.25-.2v-.21Zm0-3.14v.42l.63-.21v-.21Zm1.26-1.26h.21l.41-.42h-.21Zm1.25-2.52-.2.63v.42h.2l.22-.84v-.21Zm.22,1.89v.21h.84v-.21Zm1.47-2.51-.42.41-.63.84h.21l1-1.05v-.2Z" transform="translate(-7056.38 -7165.11)"/><path class="cls-1" d="M7324.37,7165.11c3.14.45,4.71,1,4.71,1.62l.63-.21a9.14,9.14,0,0,1,4.71,4.77l1.25,1.83a.56.56,0,0,1,.63.63,20.81,20.81,0,0,1,3.45,11.31,31.4,31.4,0,0,1,1.26,6.8l2.67,2.89q-3.09,4.24-3.09,5.13h-.21l-.21-.21v2.67l.21.84q-1.93,12.1-3.29,12.1l.21.21v.63c-.39,2.06-2.16,4.94-5.34,8.64-1.19,1.32-4.06,2.43-8.64,3.3l-.63-.21-2.46.21q-1.48,0-7.39-2.88h-.21c0,.35-1,.7-3.09,1-3.78,0-6.65-1.85-8.64-5.55h.21q2.78,2.25,4.72,2.25h.2q2.05,0,2-4.77l.21-1.42-.21-1.83.21-.21v-.21l-.58-2.47.58-3.72-.21-1.26v-1.41l.21-.84-.37-2.46.15-.84-.15-.21v-.21l.15-.21v-.16l-.15-1,.37-1a24.61,24.61,0,0,1-3.25-3.87v-.21q3.24-3.25,3.25-4.76h-.37v-.21l.37-.58-.37-1.26,1.62-1.41v-.22h-.21l-.83.58h-.42l-.15-1v-.21l.15-.84-.15-.63h.15l-.15-.58.15-2.88-.15-1.26.37-2.67-.37-1.47.37-1.2-.21-1,.21-.21v-.21c-.32-1.64-.92-2.46-1.84-2.46h-1.62c-.59,0-1.43.56-2.52,1.67h-.15v-.2c2.07-3.32,3.91-5,5.55-5a7.57,7.57,0,0,1,5.13,1.67,5,5,0,0,1,2.67-1.46l.63.21v-.21c0-.35.75-.61,2.26-.78a2.55,2.55,0,0,1,1.62-.63h.21l.41.42,1.26-.42.21.21h.21ZM7306,7169v.21h.84V7169Zm.84-.63v.42h.21l.42-.42Zm3.29,37.45v.2c0,.28.37.55,1,.79v-.36Zm.63,1.42v.21l.57.2v-.41Zm1.2-.22.43.63-.63.21v.21h.2l1.26-.43C7313.27,7207.4,7312.85,7207.2,7312,7207.06Zm0,5v.21l.43-.42v-.21Zm.43-1.26v.21h.21l.63-.21v-.21h-.21Zm1-.42h.36l.43-.42h-.43Zm.2-26.34v.2h.16a2.08,2.08,0,0,1,1.26-.58v-.41C7314.16,7183.47,7313.68,7183.73,7313.68,7184Zm.16,23.88v.21h.43v.21l-.21.2v.21h.62v-.42l.84.2h.42v-.2l-1.88-.42Zm1.47,1.47v.15h.21l.21-.78C7315.45,7208.73,7315.31,7208.95,7315.31,7209.36Zm1.84-4.34-.2,1h.41v-.41c.42,0,.63-.14.63-.43l-.21-.2Zm1-23.47v.84h.21v-.84Zm0,28v.42h.84v-.2Zm.42,16.71-.42.79h.42l.21-.58v-.21Zm.63-54.1.21,2.47-.42.42.21.16v2.31l.21,1.41h-.21l.21.21v.2a3.26,3.26,0,0,1-1,2h.62v.63l-.21.22.21.2v4.71l-.21.84.42,1.84-.21.83,3.67,4.14v.2c0,.28-.65.89-1.84,1.83,0,.7-.68,1.52-2,2.46.42,0,.63.14.63.42l-.21,2,.21,1.88-.42.79.21,1.26-.21.2.42.42-.21,3.46.21.62-.21,1,.21,1.2-.42,4.13.21.21v.21l-.21.63.21,1-.21.2.42.43-.21,1c0,.53.4.86,1.21,1l.2-.2h.21l.84.2c2.86-.27,4.3-.82,4.3-1.62.73,0,1.48-2,2.25-6h.21l-.21-2,.21-1-.21-1c.1-1.75.32-2.78.63-3.09v-.15c-.42,0-.63-.15-.63-.43l.21-5.55a4,4,0,0,0-1.21-3.09l.21-.21v-.42c-.56,0-.85-.35-.85-1l-.2.21h-.21l-1-1v-.2a23.37,23.37,0,0,0,3.51-4.56h.21a19.5,19.5,0,0,1-.63-4.71h.21l-.21-.21v-7c0-2.9-.82-4.75-2.46-5.56a11.48,11.48,0,0,0-3.67-.78l-.84.2-.22-.2v-.21Zm10.69,2.67v.21h.41l.58-.21v-.2h-.37Zm1,38.24.63.63h.2v-.42Zm.84-39.49v.42l.84-.42v-.21h-.21Zm.84,40.32v.21l1,.22c0-.29-.21-.43-.63-.43Zm3.51,1.26v.36h.78v-.21Z" transform="translate(-7056.38 -7165.11)"/></svg>